<svg width="19" height="19" viewBox="0 0 19 19" fill="none" xmlns="http://www.w3.org/2000/svg">
<path fill-rule="evenodd" clip-rule="evenodd" d="M5.2742 3.04868C4.858 3.04868 4.52061 3.38608 4.52061 3.80227V12.0918C4.52061 12.508 4.18321 12.8453 3.76702 12.8453C3.35082 12.8453 3.01343 12.508 3.01343 12.0918V3.80227C3.01343 2.55368 4.02561 1.5415 5.2742 1.5415H9.48359C9.88332 1.5415 10.2667 1.7003 10.5493 1.98295L14.6294 6.06304C14.9121 6.34569 15.0709 6.72905 15.0709 7.12878V14.3525C15.0709 15.6011 14.0587 16.6133 12.8101 16.6133H7.53497C7.11877 16.6133 6.78138 16.2759 6.78138 15.8597C6.78138 15.4435 7.11877 15.1061 7.53497 15.1061H12.8101C13.2263 15.1061 13.5637 14.7687 13.5637 14.3525L13.5637 7.12878L9.48359 3.04868H5.2742ZM9.04215 9.0774C8.20975 9.0774 7.53497 9.75219 7.53497 10.5846C7.53497 11.001 7.70284 11.3767 7.97641 11.6503C8.24998 11.9239 8.62574 12.0918 9.04215 12.0918C9.87454 12.0918 10.5493 11.417 10.5493 10.5846C10.5493 9.75219 9.87454 9.0774 9.04215 9.0774ZM6.02779 10.5846C6.02779 8.9198 7.37736 7.57022 9.04215 7.57022C10.7069 7.57022 12.0565 8.9198 12.0565 10.5846C12.0565 12.2494 10.7069 13.5989 9.04215 13.5989C8.48345 13.5989 7.9597 13.4465 7.51099 13.1815L4.29989 16.3926C4.00559 16.6869 3.52844 16.6869 3.23415 16.3926C2.93985 16.0983 2.93985 15.6211 3.23415 15.3268L6.44525 12.1157C6.18023 11.667 6.02779 11.1433 6.02779 10.5846Z" fill="#0034AD"/>
</svg>
