<svg width="17" height="17" viewBox="0 0 17 17" fill="none" xmlns="http://www.w3.org/2000/svg">
<path fill-rule="evenodd" clip-rule="evenodd" d="M2.9689 8.26788C3.79271 10.5989 6.01612 12.2679 8.62769 12.2679C11.2392 12.2679 13.4626 10.599 14.2865 8.26792C13.4627 5.93687 11.2392 4.2679 8.62767 4.2679C6.01612 4.2679 3.79272 5.93685 2.9689 8.26788ZM1.63018 8.06811C2.56446 5.09352 5.34307 2.93457 8.62767 2.93457C11.9123 2.93457 14.6909 5.09354 15.6252 8.06816C15.666 8.19821 15.666 8.33765 15.6252 8.4677C14.6909 11.4423 11.9123 13.6012 8.62769 13.6012C5.34307 13.6012 2.56444 11.4423 1.63018 8.46764C1.58934 8.3376 1.58934 8.19816 1.63018 8.06811ZM8.62738 6.93457C7.891 6.93457 7.29405 7.53152 7.29405 8.2679C7.29405 9.00428 7.891 9.60124 8.62738 9.60124C9.36376 9.60124 9.96071 9.00428 9.96071 8.2679C9.96071 7.53152 9.36376 6.93457 8.62738 6.93457ZM5.96071 8.2679C5.96071 6.79514 7.15462 5.60124 8.62738 5.60124C10.1001 5.60124 11.294 6.79514 11.294 8.2679C11.294 9.74066 10.1001 10.9346 8.62738 10.9346C7.15462 10.9346 5.96071 9.74066 5.96071 8.2679Z" fill="#0034AD"/>
</svg>
