<svg width="37" height="32" viewBox="0 0 37 32" fill="none" xmlns="http://www.w3.org/2000/svg">
<g clip-path="url(#clip0_670_25)">
<path d="M9.04681 31.8336L2.48002 20.4584C2.35158 20.2359 2.51258 19.9591 2.76766 19.9591L3.67036 19.9591C3.78976 19.9591 3.8983 20.0224 3.958 20.1255L9.88259 30.3863C9.94228 30.4895 10.0526 30.5528 10.1702 30.5528L16.4747 30.5528C16.5941 30.5528 16.7026 30.6161 16.7623 30.7192L17.2146 31.5007C17.343 31.7232 17.182 32 16.927 32L9.33445 32C9.21505 32 9.10651 31.9367 9.04681 31.8336Z" fill="#242232"/>
<path d="M18.6255 31.7319L14.8302 25.156C14.7017 24.9335 14.8627 24.6567 15.1178 24.6567L16.0205 24.6567C16.1399 24.6567 16.2484 24.72 16.3081 24.8232L19.4613 30.2828C19.521 30.3859 19.6313 30.4493 19.7489 30.4493L22.0084 30.4493C22.1278 30.4493 22.2363 30.5126 22.296 30.6157L22.7483 31.3972C22.8767 31.6197 22.7157 31.8965 22.4607 31.8965L18.9131 31.8965C18.7937 31.8965 18.6852 31.8332 18.6255 31.7301L18.6255 31.7319Z" fill="#242232"/>
<path d="M27.3509 31.8879L24.2683 31.8879C24.1489 31.8879 24.0404 31.8246 23.9807 31.7215L22.4394 29.0532C22.3797 28.9501 22.3797 28.8234 22.4394 28.7203L23.9807 26.052C24.0404 25.9489 24.1507 25.8856 24.2683 25.8856L27.3509 25.8856C27.4703 25.8856 27.5788 25.9489 27.6385 26.052L29.1798 28.7203C29.2395 28.8234 29.2395 28.9501 29.1798 29.0532L27.6385 31.7215C27.5788 31.8246 27.4685 31.8879 27.3509 31.8879Z" fill="#242232"/>
<path d="M36.7125 16.0856L30.1458 27.4608C30.0173 27.6833 29.6971 27.6833 29.5705 27.4608L29.1182 26.6793C29.0585 26.5762 29.0585 26.4496 29.1182 26.3464L35.0428 16.0856C35.1025 15.9825 35.1025 15.8559 35.0428 15.7527L31.8897 10.2931C31.83 10.19 31.83 10.0633 31.8897 9.96021L32.3419 9.17871C32.4704 8.9562 32.7906 8.9562 32.9172 9.17871L36.7125 15.7527C36.7722 15.8559 36.7722 15.9825 36.7125 16.0856Z" fill="#242232"/>
<path d="M31.8357 7.84004L28.0404 14.4159C27.9119 14.6384 27.5917 14.6384 27.4651 14.4159L27.0129 13.6344C26.9532 13.5313 26.9532 13.4046 27.0129 13.3015L30.166 7.84185C30.2257 7.73874 30.2257 7.6121 30.166 7.50899L29.0354 5.55162C28.9757 5.4485 28.9757 5.32187 29.0354 5.21875L29.4876 4.43725C29.6161 4.21474 29.9363 4.21474 30.0629 4.43725L31.8376 7.50899C31.8972 7.6121 31.8972 7.73874 31.8376 7.84185L31.8357 7.84004Z" fill="#242232"/>
<path d="M27.6078 0.208245L29.1491 2.87657C29.2088 2.97968 29.2088 3.10632 29.1491 3.20943L27.6078 5.87776C27.5481 5.98087 27.4377 6.04419 27.3201 6.04419L24.2375 6.04419C24.1182 6.04419 24.0096 5.98087 23.9499 5.87776L22.4086 3.20943C22.3489 3.10632 22.3489 2.97969 22.4086 2.87657L23.9499 0.208245C24.0096 0.10513 24.12 0.0418143 24.2375 0.0418143L27.3201 0.041814C27.4395 0.041814 27.5481 0.10513 27.6078 0.208245Z" fill="#242232"/>
<path d="M9.2425 -5.97511e-06L22.3779 -7.12344e-06C22.6348 -7.1459e-06 22.794 0.276774 22.6655 0.499285L22.2133 1.28079C22.1536 1.3839 22.0432 1.44722 21.9256 1.44722L10.0783 1.44722C9.95888 1.44722 9.85034 1.51054 9.79064 1.61365L6.6375 7.07332C6.5778 7.17643 6.46745 7.23975 6.34986 7.23975L5.44715 7.23975C5.19027 7.23975 5.03107 6.96296 5.15952 6.74045L8.95487 0.164617C9.01456 0.0615017 9.12491 -0.00181413 9.2425 -0.00181414L9.2425 -5.97511e-06Z" fill="#242232"/>
<path d="M4.54075 8.34676L12.1333 8.34676C12.3901 8.34676 12.5493 8.62355 12.4209 8.84606L11.9686 9.62756C11.9089 9.73068 11.7986 9.79399 11.681 9.79399L5.37653 9.79399C5.25713 9.79399 5.14859 9.85731 5.08889 9.96042L3.95824 11.9178C3.89855 12.0209 3.7882 12.0842 3.67061 12.0842L2.7679 12.0842C2.51102 12.0842 2.35182 11.8074 2.48026 11.5849L4.25312 8.5132C4.31282 8.41008 4.42317 8.34676 4.54075 8.34676Z" fill="#242232"/>
<path d="M5.24254 13.1553L6.78384 15.8236C6.84354 15.9267 6.84354 16.0533 6.78384 16.1565L5.24254 18.8248C5.18284 18.9279 5.07249 18.9912 4.95491 18.9912L1.87231 18.9912C1.75292 18.9912 1.64438 18.9279 1.58468 18.8248L0.04338 16.1565C-0.0163181 16.0533 -0.0163181 15.9267 0.04338 15.8236L1.58468 13.1553C1.64438 13.0522 1.75473 12.9888 1.87231 12.9888L4.95491 12.9888C5.0743 12.9888 5.18284 13.0522 5.24254 13.1553Z" fill="#242232"/>
<path d="M9.44685 16.1401L13.7089 23.5228C13.7686 23.6259 13.879 23.6892 13.9966 23.6892L22.5207 23.6892C22.6401 23.6892 22.7487 23.6259 22.8084 23.5228L27.0705 16.1401C27.1302 16.037 27.1302 15.9104 27.0705 15.8072L22.8084 8.42458C22.7487 8.32146 22.6383 8.25815 22.5207 8.25815L13.9966 8.25815C13.8772 8.25815 13.7686 8.32146 13.7089 8.42458L9.44685 15.8072C9.38715 15.9104 9.38715 16.037 9.44685 16.1401ZM14.0309 15.7421L16.0625 12.2236C16.1222 12.1204 16.2325 12.0571 16.3501 12.0571L20.4114 12.0571C20.5308 12.0571 20.6393 12.1204 20.699 12.2236L22.7306 15.7421C22.7903 15.8452 22.7903 15.9719 22.7306 16.075L20.699 19.5936C20.6393 19.6967 20.529 19.76 20.4114 19.76L16.3501 19.76C16.2307 19.76 16.1222 19.6967 16.0625 19.5936L14.0309 16.075C13.9712 15.9719 13.9712 15.8452 14.0309 15.7421Z" fill="#242232"/>
</g>
<defs>
<clipPath id="clip0_670_25">
<rect width="36.7578" height="32" fill="white" transform="translate(36.7578 32) rotate(180)"/>
</clipPath>
</defs>
</svg>
