<svg width="40" height="40" viewBox="0 0 40 40" fill="none" xmlns="http://www.w3.org/2000/svg">
<path fill-rule="evenodd" clip-rule="evenodd" d="M20 40C31.0457 40 40 31.0457 40 20C40 8.9543 31.0457 0 20 0C8.9543 0 0 8.9543 0 20C0 31.0457 8.9543 40 20 40Z" fill="#D6D8FF"/>
<path fill-rule="evenodd" clip-rule="evenodd" d="M14.0521 13.0436C14.0521 11.3724 15.4069 10.0176 17.0781 10.0176H23.1303C24.8015 10.0176 26.1563 11.3724 26.1563 13.0436V14.2245C27.3316 14.6399 28.1737 15.7608 28.1737 17.0784V18.2593C29.349 18.6747 30.1911 19.7956 30.1911 21.1131V27.1653C30.1911 28.8365 28.8363 30.1913 27.165 30.1913H13.0434C11.3721 30.1913 10.0173 28.8365 10.0173 27.1653V21.1131C10.0173 19.7956 10.8594 18.6747 12.0347 18.2593V17.0784C12.0347 15.7608 12.8768 14.6399 14.0521 14.2245V13.0436ZM16.0695 14.0523H24.139V13.0436C24.139 12.4866 23.6874 12.035 23.1303 12.035H17.0781C16.5211 12.035 16.0695 12.4866 16.0695 13.0436V14.0523ZM14.0521 18.0871H26.1563V17.0784C26.1563 16.5213 25.7047 16.0697 25.1476 16.0697H15.0608C14.5037 16.0697 14.0521 16.5213 14.0521 17.0784V18.0871ZM13.0434 20.1045C12.4863 20.1045 12.0347 20.5561 12.0347 21.1131V27.1653C12.0347 27.7223 12.4863 28.1739 13.0434 28.1739H27.165C27.7221 28.1739 28.1737 27.7223 28.1737 27.1653V21.1131C28.1737 20.5561 27.7221 20.1045 27.165 20.1045H13.0434Z" fill="#3052F5"/>
</svg>
