<svg width="186" height="32" viewBox="0 0 186 32" fill="none" xmlns="http://www.w3.org/2000/svg">
<g clip-path="url(#clip0_670_23)">
<path d="M9.04681 31.8336L2.48002 20.4584C2.35158 20.2359 2.51258 19.9591 2.76766 19.9591L3.67036 19.9591C3.78976 19.9591 3.8983 20.0224 3.958 20.1255L9.88259 30.3863C9.94228 30.4895 10.0526 30.5528 10.1702 30.5528L16.4747 30.5528C16.5941 30.5528 16.7026 30.6161 16.7623 30.7192L17.2146 31.5007C17.343 31.7232 17.182 32 16.927 32L9.33445 32C9.21505 32 9.10651 31.9367 9.04681 31.8336Z" fill="#242232"/>
<path d="M18.6255 31.7319L14.8302 25.156C14.7017 24.9335 14.8627 24.6567 15.1178 24.6567L16.0205 24.6567C16.1399 24.6567 16.2484 24.72 16.3081 24.8232L19.4613 30.2828C19.521 30.3859 19.6313 30.4493 19.7489 30.4493L22.0084 30.4493C22.1278 30.4493 22.2363 30.5126 22.296 30.6157L22.7483 31.3972C22.8767 31.6197 22.7157 31.8965 22.4607 31.8965L18.9131 31.8965C18.7937 31.8965 18.6852 31.8332 18.6255 31.7301L18.6255 31.7319Z" fill="#242232"/>
<path d="M27.3509 31.8879L24.2683 31.8879C24.1489 31.8879 24.0404 31.8246 23.9807 31.7215L22.4394 29.0532C22.3797 28.9501 22.3797 28.8234 22.4394 28.7203L23.9807 26.052C24.0404 25.9489 24.1507 25.8856 24.2683 25.8856L27.3509 25.8856C27.4703 25.8856 27.5788 25.9489 27.6385 26.052L29.1798 28.7203C29.2395 28.8234 29.2395 28.9501 29.1798 29.0532L27.6385 31.7215C27.5788 31.8246 27.4685 31.8879 27.3509 31.8879Z" fill="#242232"/>
<path d="M36.7125 16.0856L30.1458 27.4608C30.0173 27.6833 29.6971 27.6833 29.5705 27.4608L29.1182 26.6793C29.0585 26.5762 29.0585 26.4496 29.1182 26.3464L35.0428 16.0856C35.1025 15.9825 35.1025 15.8559 35.0428 15.7527L31.8897 10.2931C31.83 10.19 31.83 10.0633 31.8897 9.96021L32.3419 9.17871C32.4704 8.9562 32.7906 8.9562 32.9172 9.17871L36.7125 15.7527C36.7722 15.8559 36.7722 15.9825 36.7125 16.0856Z" fill="#242232"/>
<path d="M31.8357 7.84004L28.0404 14.4159C27.9119 14.6384 27.5917 14.6384 27.4651 14.4159L27.0129 13.6344C26.9532 13.5313 26.9532 13.4046 27.0129 13.3015L30.166 7.84185C30.2257 7.73874 30.2257 7.6121 30.166 7.50899L29.0354 5.55162C28.9757 5.4485 28.9757 5.32187 29.0354 5.21875L29.4876 4.43725C29.6161 4.21474 29.9363 4.21474 30.0629 4.43725L31.8376 7.50899C31.8972 7.6121 31.8972 7.73874 31.8376 7.84185L31.8357 7.84004Z" fill="#242232"/>
<path d="M27.6078 0.208245L29.1491 2.87657C29.2088 2.97968 29.2088 3.10632 29.1491 3.20943L27.6078 5.87776C27.5481 5.98087 27.4377 6.04419 27.3201 6.04419L24.2375 6.04419C24.1182 6.04419 24.0096 5.98087 23.9499 5.87776L22.4086 3.20943C22.3489 3.10632 22.3489 2.97969 22.4086 2.87657L23.9499 0.208245C24.0096 0.10513 24.12 0.0418143 24.2375 0.0418143L27.3201 0.041814C27.4395 0.041814 27.5481 0.10513 27.6078 0.208245Z" fill="#242232"/>
<path d="M9.2425 -5.97511e-06L22.3779 -7.12344e-06C22.6348 -7.1459e-06 22.794 0.276774 22.6655 0.499285L22.2133 1.28079C22.1536 1.3839 22.0432 1.44722 21.9256 1.44722L10.0783 1.44722C9.95888 1.44722 9.85034 1.51054 9.79064 1.61365L6.6375 7.07332C6.5778 7.17643 6.46745 7.23975 6.34986 7.23975L5.44715 7.23975C5.19027 7.23975 5.03107 6.96296 5.15952 6.74045L8.95487 0.164617C9.01456 0.0615017 9.12491 -0.00181413 9.2425 -0.00181414L9.2425 -5.97511e-06Z" fill="#242232"/>
<path d="M4.54075 8.34676L12.1333 8.34676C12.3901 8.34676 12.5493 8.62355 12.4209 8.84606L11.9686 9.62756C11.9089 9.73068 11.7986 9.79399 11.681 9.79399L5.37653 9.79399C5.25713 9.79399 5.14859 9.85731 5.08889 9.96042L3.95824 11.9178C3.89855 12.0209 3.7882 12.0842 3.67061 12.0842L2.7679 12.0842C2.51102 12.0842 2.35182 11.8074 2.48026 11.5849L4.25312 8.5132C4.31282 8.41008 4.42317 8.34676 4.54075 8.34676Z" fill="#242232"/>
<path d="M5.24254 13.1553L6.78384 15.8236C6.84354 15.9267 6.84354 16.0533 6.78384 16.1565L5.24254 18.8248C5.18284 18.9279 5.07249 18.9912 4.95491 18.9912L1.87231 18.9912C1.75292 18.9912 1.64438 18.9279 1.58468 18.8248L0.04338 16.1565C-0.0163181 16.0533 -0.0163181 15.9267 0.04338 15.8236L1.58468 13.1553C1.64438 13.0522 1.75473 12.9888 1.87231 12.9888L4.95491 12.9888C5.0743 12.9888 5.18284 13.0522 5.24254 13.1553Z" fill="#242232"/>
<path d="M9.44685 16.1401L13.7089 23.5228C13.7686 23.6259 13.879 23.6892 13.9966 23.6892L22.5207 23.6892C22.6401 23.6892 22.7487 23.6259 22.8084 23.5228L27.0705 16.1401C27.1302 16.037 27.1302 15.9104 27.0705 15.8072L22.8084 8.42458C22.7487 8.32146 22.6383 8.25815 22.5207 8.25815L13.9966 8.25815C13.8772 8.25815 13.7686 8.32146 13.7089 8.42458L9.44685 15.8072C9.38715 15.9104 9.38715 16.037 9.44685 16.1401ZM14.0309 15.7421L16.0625 12.2236C16.1222 12.1204 16.2325 12.0571 16.3501 12.0571L20.4114 12.0571C20.5308 12.0571 20.6393 12.1204 20.699 12.2236L22.7306 15.7421C22.7903 15.8452 22.7903 15.9719 22.7306 16.075L20.699 19.5936C20.6393 19.6967 20.529 19.76 20.4114 19.76L16.3501 19.76C16.2307 19.76 16.1222 19.6967 16.0625 19.5936L14.0309 16.075C13.9712 15.9719 13.9712 15.8452 14.0309 15.7421Z" fill="#242232"/>
</g>
<path d="M46.2478 8.1C46.2478 7.13867 46.4625 6.28 46.8918 5.524C47.3305 4.75867 47.9231 4.166 48.6698 3.746C49.4258 3.31667 50.2705 3.102 51.2038 3.102C52.2958 3.102 53.2525 3.382 54.0738 3.942C54.8951 4.502 55.4691 5.27667 55.7958 6.266H53.5418C53.3178 5.79933 53.0005 5.44933 52.5898 5.216C52.1885 4.98267 51.7218 4.866 51.1898 4.866C50.6205 4.866 50.1118 5.00133 49.6638 5.272C49.2251 5.53333 48.8798 5.90667 48.6278 6.392C48.3851 6.87733 48.2638 7.44667 48.2638 8.1C48.2638 8.744 48.3851 9.31333 48.6278 9.808C48.8798 10.2933 49.2251 10.6713 49.6638 10.942C50.1118 11.2033 50.6205 11.334 51.1898 11.334C51.7218 11.334 52.1885 11.2173 52.5898 10.984C53.0005 10.7413 53.3178 10.3867 53.5418 9.92H55.7958C55.4691 10.9187 54.8951 11.698 54.0738 12.258C53.2618 12.8087 52.3051 13.084 51.2038 13.084C50.2705 13.084 49.4258 12.874 48.6698 12.454C47.9231 12.0247 47.3305 11.432 46.8918 10.676C46.4625 9.92 46.2478 9.06133 46.2478 8.1ZM61.1939 13.126C60.4472 13.126 59.7752 12.9627 59.1779 12.636C58.5806 12.3 58.1092 11.8287 57.7639 11.222C57.4279 10.6153 57.2599 9.91533 57.2599 9.122C57.2599 8.32867 57.4326 7.62867 57.7779 7.022C58.1326 6.41533 58.6132 5.94867 59.2199 5.622C59.8266 5.286 60.5032 5.118 61.2499 5.118C61.9966 5.118 62.6732 5.286 63.2799 5.622C63.8866 5.94867 64.3626 6.41533 64.7079 7.022C65.0626 7.62867 65.2399 8.32867 65.2399 9.122C65.2399 9.91533 65.0579 10.6153 64.6939 11.222C64.3392 11.8287 63.8539 12.3 63.2379 12.636C62.6312 12.9627 61.9499 13.126 61.1939 13.126ZM61.1939 11.418C61.5486 11.418 61.8799 11.334 62.1879 11.166C62.5052 10.9887 62.7572 10.7273 62.9439 10.382C63.1306 10.0367 63.2239 9.61667 63.2239 9.122C63.2239 8.38467 63.0279 7.82 62.6359 7.428C62.2532 7.02667 61.7819 6.826 61.2219 6.826C60.6619 6.826 60.1906 7.02667 59.8079 7.428C59.4346 7.82 59.2479 8.38467 59.2479 9.122C59.2479 9.85933 59.4299 10.4287 59.7939 10.83C60.1672 11.222 60.6339 11.418 61.1939 11.418ZM71.2556 5.132C72.1796 5.132 72.9263 5.426 73.4956 6.014C74.065 6.59267 74.3496 7.40467 74.3496 8.45V13H72.3896V8.716C72.3896 8.1 72.2356 7.62867 71.9276 7.302C71.6196 6.966 71.1996 6.798 70.6676 6.798C70.1263 6.798 69.697 6.966 69.3796 7.302C69.0716 7.62867 68.9176 8.1 68.9176 8.716V13H66.9576V5.244H68.9176V6.21C69.179 5.874 69.5103 5.61267 69.9116 5.426C70.3223 5.23 70.7703 5.132 71.2556 5.132ZM79.4615 13.126C78.8268 13.126 78.2575 13.014 77.7535 12.79C77.2495 12.5567 76.8482 12.244 76.5495 11.852C76.2602 11.46 76.1015 11.026 76.0735 10.55H78.0475C78.0848 10.8487 78.2295 11.096 78.4815 11.292C78.7428 11.488 79.0648 11.586 79.4475 11.586C79.8208 11.586 80.1102 11.5113 80.3155 11.362C80.5302 11.2127 80.6375 11.0213 80.6375 10.788C80.6375 10.536 80.5068 10.3493 80.2455 10.228C79.9935 10.0973 79.5875 9.95733 79.0275 9.808C78.4488 9.668 77.9728 9.52333 77.5995 9.374C77.2355 9.22467 76.9182 8.996 76.6475 8.688C76.3862 8.38 76.2555 7.96467 76.2555 7.442C76.2555 7.01267 76.3768 6.62067 76.6195 6.266C76.8715 5.91133 77.2262 5.63133 77.6835 5.426C78.1502 5.22067 78.6962 5.118 79.3215 5.118C80.2455 5.118 80.9828 5.35133 81.5335 5.818C82.0842 6.27533 82.3875 6.896 82.4435 7.68H80.5675C80.5395 7.372 80.4088 7.12933 80.1755 6.952C79.9515 6.76533 79.6482 6.672 79.2655 6.672C78.9108 6.672 78.6355 6.73733 78.4395 6.868C78.2528 6.99867 78.1595 7.18067 78.1595 7.414C78.1595 7.67533 78.2902 7.876 78.5515 8.016C78.8128 8.14667 79.2188 8.282 79.7695 8.422C80.3295 8.562 80.7915 8.70667 81.1555 8.856C81.5195 9.00533 81.8322 9.23867 82.0935 9.556C82.3642 9.864 82.5042 10.2747 82.5135 10.788C82.5135 11.236 82.3875 11.6373 82.1355 11.992C81.8928 12.3467 81.5382 12.6267 81.0715 12.832C80.6142 13.028 80.0775 13.126 79.4615 13.126ZM86.6844 6.854V10.606C86.6844 10.8673 86.7451 11.0587 86.8664 11.18C86.9971 11.292 87.2117 11.348 87.5104 11.348H88.4204V13H87.1884C85.5364 13 84.7104 12.1973 84.7104 10.592V6.854H83.7864V5.244H84.7104V3.326H86.6844V5.244H88.4204V6.854H86.6844ZM91.1041 4.32C90.7588 4.32 90.4695 4.21267 90.2361 3.998C90.0121 3.774 89.9001 3.49867 89.9001 3.172C89.9001 2.84533 90.0121 2.57467 90.2361 2.36C90.4695 2.136 90.7588 2.024 91.1041 2.024C91.4495 2.024 91.7341 2.136 91.9581 2.36C92.1915 2.57467 92.3081 2.84533 92.3081 3.172C92.3081 3.49867 92.1915 3.774 91.9581 3.998C91.7341 4.21267 91.4495 4.32 91.1041 4.32ZM92.0701 5.244V13H90.1101V5.244H92.0701ZM96.5686 6.854V10.606C96.5686 10.8673 96.6293 11.0587 96.7506 11.18C96.8813 11.292 97.096 11.348 97.3946 11.348H98.3046V13H97.0726C95.4206 13 94.5946 12.1973 94.5946 10.592V6.854H93.6706V5.244H94.5946V3.326H96.5686V5.244H98.3046V6.854H96.5686ZM107.316 5.244V13H105.342V12.02C105.09 12.356 104.759 12.622 104.348 12.818C103.947 13.0047 103.508 13.098 103.032 13.098C102.426 13.098 101.889 12.972 101.422 12.72C100.956 12.4587 100.587 12.0807 100.316 11.586C100.055 11.082 99.9244 10.4847 99.9244 9.794V5.244H101.884V9.514C101.884 10.13 102.038 10.606 102.346 10.942C102.654 11.2687 103.074 11.432 103.606 11.432C104.148 11.432 104.572 11.2687 104.88 10.942C105.188 10.606 105.342 10.13 105.342 9.514V5.244H107.316ZM111.812 6.854V10.606C111.812 10.8673 111.873 11.0587 111.994 11.18C112.125 11.292 112.34 11.348 112.638 11.348H113.548V13H112.316C110.664 13 109.838 12.1973 109.838 10.592V6.854H108.914V5.244H109.838V3.326H111.812V5.244H113.548V6.854H111.812ZM116.232 4.32C115.887 4.32 115.597 4.21267 115.364 3.998C115.14 3.774 115.028 3.49867 115.028 3.172C115.028 2.84533 115.14 2.57467 115.364 2.36C115.597 2.136 115.887 2.024 116.232 2.024C116.577 2.024 116.862 2.136 117.086 2.36C117.319 2.57467 117.436 2.84533 117.436 3.172C117.436 3.49867 117.319 3.774 117.086 3.998C116.862 4.21267 116.577 4.32 116.232 4.32ZM117.198 5.244V13H115.238V5.244H117.198ZM122.858 13.126C122.112 13.126 121.44 12.9627 120.842 12.636C120.245 12.3 119.774 11.8287 119.428 11.222C119.092 10.6153 118.924 9.91533 118.924 9.122C118.924 8.32867 119.097 7.62867 119.442 7.022C119.797 6.41533 120.278 5.94867 120.884 5.622C121.491 5.286 122.168 5.118 122.914 5.118C123.661 5.118 124.338 5.286 124.944 5.622C125.551 5.94867 126.027 6.41533 126.372 7.022C126.727 7.62867 126.904 8.32867 126.904 9.122C126.904 9.91533 126.722 10.6153 126.358 11.222C126.004 11.8287 125.518 12.3 124.902 12.636C124.296 12.9627 123.614 13.126 122.858 13.126ZM122.858 11.418C123.213 11.418 123.544 11.334 123.852 11.166C124.17 10.9887 124.422 10.7273 124.608 10.382C124.795 10.0367 124.888 9.61667 124.888 9.122C124.888 8.38467 124.692 7.82 124.3 7.428C123.918 7.02667 123.446 6.826 122.886 6.826C122.326 6.826 121.855 7.02667 121.472 7.428C121.099 7.82 120.912 8.38467 120.912 9.122C120.912 9.85933 121.094 10.4287 121.458 10.83C121.832 11.222 122.298 11.418 122.858 11.418ZM132.92 5.132C133.844 5.132 134.591 5.426 135.16 6.014C135.73 6.59267 136.014 7.40467 136.014 8.45V13H134.054V8.716C134.054 8.1 133.9 7.62867 133.592 7.302C133.284 6.966 132.864 6.798 132.332 6.798C131.791 6.798 131.362 6.966 131.044 7.302C130.736 7.62867 130.582 8.1 130.582 8.716V13H128.622V5.244H130.582V6.21C130.844 5.874 131.175 5.61267 131.576 5.426C131.987 5.23 132.435 5.132 132.92 5.132ZM137.654 9.094C137.654 8.31 137.808 7.61467 138.116 7.008C138.433 6.40133 138.858 5.93467 139.39 5.608C139.931 5.28133 140.533 5.118 141.196 5.118C141.775 5.118 142.279 5.23467 142.708 5.468C143.147 5.70133 143.497 5.99533 143.758 6.35V5.244H145.732V13H143.758V11.866C143.506 12.23 143.156 12.5333 142.708 12.776C142.269 13.0093 141.761 13.126 141.182 13.126C140.529 13.126 139.931 12.958 139.39 12.622C138.858 12.286 138.433 11.8147 138.116 11.208C137.808 10.592 137.654 9.88733 137.654 9.094ZM143.758 9.122C143.758 8.646 143.665 8.24 143.478 7.904C143.291 7.55867 143.039 7.29733 142.722 7.12C142.405 6.93333 142.064 6.84 141.7 6.84C141.336 6.84 141 6.92867 140.692 7.106C140.384 7.28333 140.132 7.54467 139.936 7.89C139.749 8.226 139.656 8.62733 139.656 9.094C139.656 9.56067 139.749 9.97133 139.936 10.326C140.132 10.6713 140.384 10.9373 140.692 11.124C141.009 11.3107 141.345 11.404 141.7 11.404C142.064 11.404 142.405 11.3153 142.722 11.138C143.039 10.9513 143.291 10.69 143.478 10.354C143.665 10.0087 143.758 9.598 143.758 9.122ZM149.886 2.64V13H147.926V2.64H149.886ZM46.2478 24.1C46.2478 23.1387 46.4625 22.28 46.8918 21.524C47.3305 20.7587 47.9231 20.166 48.6698 19.746C49.4258 19.3167 50.2705 19.102 51.2038 19.102C52.2958 19.102 53.2525 19.382 54.0738 19.942C54.8951 20.502 55.4691 21.2767 55.7958 22.266H53.5418C53.3178 21.7993 53.0005 21.4493 52.5898 21.216C52.1885 20.9827 51.7218 20.866 51.1898 20.866C50.6205 20.866 50.1118 21.0013 49.6638 21.272C49.2251 21.5333 48.8798 21.9067 48.6278 22.392C48.3851 22.8773 48.2638 23.4467 48.2638 24.1C48.2638 24.744 48.3851 25.3133 48.6278 25.808C48.8798 26.2933 49.2251 26.6713 49.6638 26.942C50.1118 27.2033 50.6205 27.334 51.1898 27.334C51.7218 27.334 52.1885 27.2173 52.5898 26.984C53.0005 26.7413 53.3178 26.3867 53.5418 25.92H55.7958C55.4691 26.9187 54.8951 27.698 54.0738 28.258C53.2618 28.8087 52.3051 29.084 51.2038 29.084C50.2705 29.084 49.4258 28.874 48.6698 28.454C47.9231 28.0247 47.3305 27.432 46.8918 26.676C46.4625 25.92 46.2478 25.0613 46.2478 24.1ZM61.1939 29.126C60.4472 29.126 59.7752 28.9627 59.1779 28.636C58.5806 28.3 58.1092 27.8287 57.7639 27.222C57.4279 26.6153 57.2599 25.9153 57.2599 25.122C57.2599 24.3287 57.4326 23.6287 57.7779 23.022C58.1326 22.4153 58.6132 21.9487 59.2199 21.622C59.8266 21.286 60.5032 21.118 61.2499 21.118C61.9966 21.118 62.6732 21.286 63.2799 21.622C63.8866 21.9487 64.3626 22.4153 64.7079 23.022C65.0626 23.6287 65.2399 24.3287 65.2399 25.122C65.2399 25.9153 65.0579 26.6153 64.6939 27.222C64.3392 27.8287 63.8539 28.3 63.2379 28.636C62.6312 28.9627 61.9499 29.126 61.1939 29.126ZM61.1939 27.418C61.5486 27.418 61.8799 27.334 62.1879 27.166C62.5052 26.9887 62.7572 26.7273 62.9439 26.382C63.1306 26.0367 63.2239 25.6167 63.2239 25.122C63.2239 24.3847 63.0279 23.82 62.6359 23.428C62.2532 23.0267 61.7819 22.826 61.2219 22.826C60.6619 22.826 60.1906 23.0267 59.8079 23.428C59.4346 23.82 59.2479 24.3847 59.2479 25.122C59.2479 25.8593 59.4299 26.4287 59.7939 26.83C60.1672 27.222 60.6339 27.418 61.1939 27.418ZM76.5896 21.132C77.5416 21.132 78.307 21.426 78.8856 22.014C79.4736 22.5927 79.7676 23.4047 79.7676 24.45V29H77.8076V24.716C77.8076 24.1093 77.6536 23.6473 77.3456 23.33C77.0376 23.0033 76.6176 22.84 76.0856 22.84C75.5536 22.84 75.129 23.0033 74.8116 23.33C74.5036 23.6473 74.3496 24.1093 74.3496 24.716V29H72.3896V24.716C72.3896 24.1093 72.2356 23.6473 71.9276 23.33C71.6196 23.0033 71.1996 22.84 70.6676 22.84C70.1263 22.84 69.697 23.0033 69.3796 23.33C69.0716 23.6473 68.9176 24.1093 68.9176 24.716V29H66.9576V21.244H68.9176V22.182C69.1696 21.8553 69.4916 21.5987 69.8836 21.412C70.285 21.2253 70.7236 21.132 71.1996 21.132C71.8063 21.132 72.3476 21.2627 72.8236 21.524C73.2996 21.776 73.6683 22.14 73.9296 22.616C74.1816 22.168 74.5456 21.8087 75.0216 21.538C75.507 21.2673 76.0296 21.132 76.5896 21.132ZM91.5396 21.132C92.4916 21.132 93.2569 21.426 93.8356 22.014C94.4236 22.5927 94.7176 23.4047 94.7176 24.45V29H92.7576V24.716C92.7576 24.1093 92.6036 23.6473 92.2956 23.33C91.9876 23.0033 91.5676 22.84 91.0356 22.84C90.5036 22.84 90.0789 23.0033 89.7616 23.33C89.4536 23.6473 89.2996 24.1093 89.2996 24.716V29H87.3396V24.716C87.3396 24.1093 87.1856 23.6473 86.8776 23.33C86.5696 23.0033 86.1496 22.84 85.6176 22.84C85.0762 22.84 84.6469 23.0033 84.3296 23.33C84.0216 23.6473 83.8676 24.1093 83.8676 24.716V29H81.9076V21.244H83.8676V22.182C84.1196 21.8553 84.4416 21.5987 84.8336 21.412C85.2349 21.2253 85.6736 21.132 86.1496 21.132C86.7562 21.132 87.2976 21.2627 87.7736 21.524C88.2496 21.776 88.6182 22.14 88.8796 22.616C89.1316 22.168 89.4956 21.8087 89.9716 21.538C90.4569 21.2673 90.9796 21.132 91.5396 21.132ZM97.8515 20.32C97.5062 20.32 97.2168 20.2127 96.9835 19.998C96.7595 19.774 96.6475 19.4987 96.6475 19.172C96.6475 18.8453 96.7595 18.5747 96.9835 18.36C97.2168 18.136 97.5062 18.024 97.8515 18.024C98.1968 18.024 98.4815 18.136 98.7055 18.36C98.9388 18.5747 99.0555 18.8453 99.0555 19.172C99.0555 19.4987 98.9388 19.774 98.7055 19.998C98.4815 20.2127 98.1968 20.32 97.8515 20.32ZM98.8175 21.244V29H96.8575V21.244H98.8175ZM103.316 22.854V26.606C103.316 26.8673 103.377 27.0587 103.498 27.18C103.629 27.292 103.843 27.348 104.142 27.348H105.052V29H103.82C102.168 29 101.342 28.1973 101.342 26.592V22.854H100.418V21.244H101.342V19.326H103.316V21.244H105.052V22.854H103.316ZM109.024 22.854V26.606C109.024 26.8673 109.084 27.0587 109.206 27.18C109.336 27.292 109.551 27.348 109.85 27.348H110.76V29H109.528C107.876 29 107.05 28.1973 107.05 26.592V22.854H106.126V21.244H107.05V19.326H109.024V21.244H110.76V22.854H109.024ZM119.659 24.954C119.659 25.234 119.641 25.486 119.603 25.71H113.933C113.98 26.27 114.176 26.7087 114.521 27.026C114.867 27.3433 115.291 27.502 115.795 27.502C116.523 27.502 117.041 27.1893 117.349 26.564H119.463C119.239 27.3107 118.81 27.9267 118.175 28.412C117.541 28.888 116.761 29.126 115.837 29.126C115.091 29.126 114.419 28.9627 113.821 28.636C113.233 28.3 112.771 27.8287 112.435 27.222C112.109 26.6153 111.945 25.9153 111.945 25.122C111.945 24.3193 112.109 23.6147 112.435 23.008C112.762 22.4013 113.219 21.9347 113.807 21.608C114.395 21.2813 115.072 21.118 115.837 21.118C116.575 21.118 117.233 21.2767 117.811 21.594C118.399 21.9113 118.852 22.364 119.169 22.952C119.496 23.5307 119.659 24.198 119.659 24.954ZM117.629 24.394C117.62 23.89 117.438 23.4887 117.083 23.19C116.729 22.882 116.295 22.728 115.781 22.728C115.296 22.728 114.885 22.8773 114.549 23.176C114.223 23.4653 114.022 23.8713 113.947 24.394H117.629ZM128.58 24.954C128.58 25.234 128.561 25.486 128.524 25.71H122.854C122.901 26.27 123.097 26.7087 123.442 27.026C123.787 27.3433 124.212 27.502 124.716 27.502C125.444 27.502 125.962 27.1893 126.27 26.564H128.384C128.16 27.3107 127.731 27.9267 127.096 28.412C126.461 28.888 125.682 29.126 124.758 29.126C124.011 29.126 123.339 28.9627 122.742 28.636C122.154 28.3 121.692 27.8287 121.356 27.222C121.029 26.6153 120.866 25.9153 120.866 25.122C120.866 24.3193 121.029 23.6147 121.356 23.008C121.683 22.4013 122.14 21.9347 122.728 21.608C123.316 21.2813 123.993 21.118 124.758 21.118C125.495 21.118 126.153 21.2767 126.732 21.594C127.32 21.9113 127.773 22.364 128.09 22.952C128.417 23.5307 128.58 24.198 128.58 24.954ZM126.55 24.394C126.541 23.89 126.359 23.4887 126.004 23.19C125.649 22.882 125.215 22.728 124.702 22.728C124.217 22.728 123.806 22.8773 123.47 23.176C123.143 23.4653 122.943 23.8713 122.868 24.394H126.55ZM141.033 22.252C141.033 22.7747 140.907 23.2647 140.655 23.722C140.412 24.1793 140.025 24.548 139.493 24.828C138.97 25.108 138.307 25.248 137.505 25.248H135.867V29H133.907V19.228H137.505C138.261 19.228 138.905 19.3587 139.437 19.62C139.969 19.8813 140.365 20.2407 140.627 20.698C140.897 21.1553 141.033 21.6733 141.033 22.252ZM137.421 23.666C137.962 23.666 138.363 23.5447 138.625 23.302C138.886 23.05 139.017 22.7 139.017 22.252C139.017 21.3 138.485 20.824 137.421 20.824H135.867V23.666H137.421ZM146.148 29.126C145.402 29.126 144.73 28.9627 144.132 28.636C143.535 28.3 143.064 27.8287 142.718 27.222C142.382 26.6153 142.214 25.9153 142.214 25.122C142.214 24.3287 142.387 23.6287 142.732 23.022C143.087 22.4153 143.568 21.9487 144.174 21.622C144.781 21.286 145.458 21.118 146.204 21.118C146.951 21.118 147.628 21.286 148.234 21.622C148.841 21.9487 149.317 22.4153 149.662 23.022C150.017 23.6287 150.194 24.3287 150.194 25.122C150.194 25.9153 150.012 26.6153 149.648 27.222C149.294 27.8287 148.808 28.3 148.192 28.636C147.586 28.9627 146.904 29.126 146.148 29.126ZM146.148 27.418C146.503 27.418 146.834 27.334 147.142 27.166C147.46 26.9887 147.712 26.7273 147.898 26.382C148.085 26.0367 148.178 25.6167 148.178 25.122C148.178 24.3847 147.982 23.82 147.59 23.428C147.208 23.0267 146.736 22.826 146.176 22.826C145.616 22.826 145.145 23.0267 144.762 23.428C144.389 23.82 144.202 24.3847 144.202 25.122C144.202 25.8593 144.384 26.4287 144.748 26.83C145.122 27.222 145.588 27.418 146.148 27.418ZM153.872 22.448C154.124 22.0373 154.451 21.7153 154.852 21.482C155.263 21.2487 155.729 21.132 156.252 21.132V23.19H155.734C155.118 23.19 154.651 23.3347 154.334 23.624C154.026 23.9133 153.872 24.4173 153.872 25.136V29H151.912V21.244H153.872V22.448ZM160.134 22.854V26.606C160.134 26.8673 160.195 27.0587 160.316 27.18C160.447 27.292 160.661 27.348 160.96 27.348H161.87V29H160.638C158.986 29 158.16 28.1973 158.16 26.592V22.854H157.236V21.244H158.16V19.326H160.134V21.244H161.87V22.854H160.134ZM163.056 25.094C163.056 24.31 163.21 23.6147 163.518 23.008C163.835 22.4013 164.26 21.9347 164.792 21.608C165.333 21.2813 165.935 21.118 166.598 21.118C167.176 21.118 167.68 21.2347 168.11 21.468C168.548 21.7013 168.898 21.9953 169.16 22.35V21.244H171.134V29H169.16V27.866C168.908 28.23 168.558 28.5333 168.11 28.776C167.671 29.0093 167.162 29.126 166.584 29.126C165.93 29.126 165.333 28.958 164.792 28.622C164.26 28.286 163.835 27.8147 163.518 27.208C163.21 26.592 163.056 25.8873 163.056 25.094ZM169.16 25.122C169.16 24.646 169.066 24.24 168.88 23.904C168.693 23.5587 168.441 23.2973 168.124 23.12C167.806 22.9333 167.466 22.84 167.102 22.84C166.738 22.84 166.402 22.9287 166.094 23.106C165.786 23.2833 165.534 23.5447 165.338 23.89C165.151 24.226 165.058 24.6273 165.058 25.094C165.058 25.5607 165.151 25.9713 165.338 26.326C165.534 26.6713 165.786 26.9373 166.094 27.124C166.411 27.3107 166.747 27.404 167.102 27.404C167.466 27.404 167.806 27.3153 168.124 27.138C168.441 26.9513 168.693 26.69 168.88 26.354C169.066 26.0087 169.16 25.598 169.16 25.122ZM175.288 18.64V29H173.328V18.64H175.288Z" fill="#242232"/>
<defs>
<clipPath id="clip0_670_23">
<rect width="36.7578" height="32" fill="white" transform="translate(36.7578 32) rotate(180)"/>
</clipPath>
</defs>
</svg>
