<svg width="25" height="25" viewBox="0 0 25 25" fill="none" xmlns="http://www.w3.org/2000/svg">
<path fill-rule="evenodd" clip-rule="evenodd" d="M10.8242 0.803951C6.3651 1.27266 2.44354 4.25755 0.798618 8.43499C-1.11049 13.2833 0.462611 19.0984 4.54915 22.2989L5.0475 22.6891L4.68554 22.7866C4.48648 22.8402 4.18653 22.9115 4.01909 22.945C3.38125 23.0726 3.15548 23.8322 3.63674 24.2318C3.91036 24.4589 4.09149 24.4447 5.78153 24.0635C7.38445 23.7019 7.71611 23.5417 7.75991 23.1083C7.79615 22.7499 7.14915 19.886 6.96925 19.6084C6.68119 19.1638 5.98058 19.2585 5.73245 19.7755C5.64288 19.9621 5.65448 20.1526 5.79115 20.7395C5.88478 21.1418 5.93499 21.4708 5.90271 21.4706C5.87044 21.4705 5.53745 21.205 5.16274 20.8807C0.480922 16.8293 0.214854 9.72493 4.58106 5.34759C6.70205 3.22112 9.68119 2.06832 12.5961 2.24585C13.474 2.29937 13.5502 2.28955 13.7681 2.09475C14.1206 1.77941 14.1616 1.44642 13.8871 1.12731C13.6935 0.902204 13.5567 0.849538 13.0072 0.788472C12.2388 0.703149 11.7501 0.706641 10.8242 0.803951ZM18.1726 1.47058C17.3223 1.67162 16.564 1.88823 16.4874 1.95175C16.1719 2.21367 16.1752 2.47134 16.5135 3.9408C16.9297 5.7492 17.0028 5.97166 17.2186 6.08719C17.5212 6.24906 17.9267 6.19441 18.1447 5.96241C18.3838 5.70786 18.3958 5.49181 18.2139 4.71862C18.1407 4.40763 18.0933 4.14071 18.1084 4.12551C18.1651 4.06898 19.147 4.90201 19.7369 5.50701C20.3738 6.16043 21.1721 7.29011 21.5978 8.14051C22.2281 9.39959 22.6904 11.3859 22.6904 12.8349C22.6904 14.2839 22.2281 16.2702 21.5978 17.5293C20.8942 18.9348 19.6275 20.4328 18.3027 21.4258C16.5086 22.7707 13.8715 23.5525 11.5659 23.423L10.5866 23.3679L10.3154 23.6392C9.97472 23.9798 9.97189 24.2449 10.3053 24.5781C10.5351 24.8081 10.6622 24.8469 11.3671 24.9027C11.8074 24.9376 12.6211 24.9225 13.1751 24.869C18.031 24.4013 22.0697 21.1609 23.585 16.5168C23.9586 15.3716 24.1073 14.3239 24.1073 12.8349C24.1073 10.803 23.7982 9.37921 22.9762 7.62451C22.2389 6.05057 20.8014 4.27067 19.4445 3.25142L18.8874 2.83292L19.5644 2.67927C20.3924 2.49125 20.6151 2.31155 20.6151 1.83141C20.6151 1.55912 20.5566 1.42924 20.3664 1.27974C20.0503 1.03104 20.0205 1.03359 18.1726 1.47058ZM5.31763 8.15561L5.04174 8.4315V12.8349V17.2383L5.31763 17.5142L5.59351 17.79H12.108H18.6225L18.8873 17.5623L19.1521 17.3345V12.8349V8.33532L18.8873 8.10748L18.6225 7.87973H12.108H5.59351L5.31763 8.15561ZM8.12404 9.74787C8.3399 9.94032 9.30809 10.8198 10.2757 11.7023C11.2432 12.5848 12.0713 13.3068 12.1156 13.3068C12.16 13.3068 13.0141 12.5635 14.0135 11.6551C15.0129 10.7466 15.9834 9.86708 16.17 9.70058L16.5094 9.3977L12.1205 9.3978L7.73169 9.39789L8.12404 9.74787ZM6.55189 13.2876V16.2799H12.1205H17.6892V13.2876V10.2954L17.3353 10.6287C16.117 11.7757 12.685 14.861 12.472 15.0005C12.312 15.1054 12.131 15.1467 11.9884 15.1109C11.8048 15.0648 8.47666 12.1328 6.90583 10.6333L6.55189 10.2954V13.2876Z" fill="#0034AD"/>
</svg>
