<svg width="20" height="21" viewBox="0 0 20 21" fill="none" xmlns="http://www.w3.org/2000/svg">
<path d="M7.35156 14.7319C6.46094 17.3804 2.92969 17.3804 2.92969 17.3804C2.92969 17.3804 2.92969 13.8491 5.57813 12.9585" stroke="#F8F9FF" stroke-width="1.5" stroke-linecap="round" stroke-linejoin="round"/>
<path d="M15.3047 8.54452L10 13.8492L6.46094 10.3101L11.7656 5.00546C13.7734 2.99765 15.7812 3.02109 16.6406 3.14609C16.7732 3.16378 16.8963 3.22462 16.9909 3.31922C17.0855 3.41382 17.1464 3.53692 17.1641 3.66952C17.2891 4.5289 17.3125 6.53671 15.3047 8.54452Z" stroke="#F8F9FF" stroke-width="1.5" stroke-linecap="round" stroke-linejoin="round"/>
<path d="M14.4219 9.42725V14.4741C14.4195 14.639 14.3521 14.7962 14.2344 14.9116L11.7109 17.4429C11.6309 17.5228 11.5306 17.5796 11.4208 17.607C11.3111 17.6345 11.1959 17.6316 11.0876 17.5987C10.9794 17.5658 10.882 17.5042 10.8061 17.4203C10.7301 17.3364 10.6783 17.2335 10.6562 17.1226L10 13.8491" stroke="#F8F9FF" stroke-width="1.5" stroke-linecap="round" stroke-linejoin="round"/>
<path d="M10.8828 5.88818H5.83588C5.67102 5.89053 5.51377 5.95792 5.39838 6.07568L2.86713 8.59912C2.78716 8.67918 2.73043 8.77944 2.70299 8.88922C2.67554 8.99899 2.67842 9.11416 2.7113 9.22243C2.74418 9.3307 2.80584 9.42801 2.8897 9.50399C2.97355 9.57996 3.07646 9.63174 3.18744 9.65381L6.46088 10.3101" stroke="#F8F9FF" stroke-width="1.5" stroke-linecap="round" stroke-linejoin="round"/>
</svg>
