<svg width="25" height="25" viewBox="0 0 25 25" fill="none" xmlns="http://www.w3.org/2000/svg">
<g id="trash">
<path id="Shape (Stroke)" fill-rule="evenodd" clip-rule="evenodd" d="M8.49 4.78692C8.49 3.67706 9.38971 2.77734 10.4996 2.77734H14.5187C15.6286 2.77734 16.5283 3.67706 16.5283 4.78692V6.79649H19.5323C19.5385 6.79643 19.5447 6.79643 19.5509 6.79649H20.5474C21.1024 6.79649 21.5522 7.24635 21.5522 7.80128C21.5522 8.3562 21.1024 8.80606 20.5474 8.80606H20.4782L19.6734 20.0735C19.5607 21.6509 18.2482 22.8731 16.6667 22.8731H8.35157C6.77013 22.8731 5.45755 21.6509 5.34488 20.0735L4.54006 8.80606H4.47085C3.91592 8.80606 3.46606 8.3562 3.46606 7.80128C3.46606 7.24635 3.91592 6.79649 4.47085 6.79649H5.46734C5.47358 6.79643 5.4798 6.79643 5.48601 6.79649H8.49V4.78692ZM6.55475 8.80606L7.34934 19.9303C7.3869 20.4561 7.82443 20.8635 8.35157 20.8635H16.6667C17.1939 20.8635 17.6314 20.4561 17.6689 19.9303L18.4635 8.80606H6.55475ZM14.5187 6.79649H10.4996V4.78692H14.5187V6.79649ZM10.4996 10.8156C11.0545 10.8156 11.5044 11.2655 11.5044 11.8204V17.8491C11.5044 18.4041 11.0545 18.8539 10.4996 18.8539C9.94464 18.8539 9.49478 18.4041 9.49478 17.8491V11.8204C9.49478 11.2655 9.94464 10.8156 10.4996 10.8156ZM14.5187 10.8156C15.0736 10.8156 15.5235 11.2655 15.5235 11.8204V17.8491C15.5235 18.4041 15.0736 18.8539 14.5187 18.8539C13.9638 18.8539 13.5139 18.4041 13.5139 17.8491V11.8204C13.5139 11.2655 13.9638 10.8156 14.5187 10.8156Z" fill="#0034AD"/>
</g>
</svg>
