<svg width="25" height="25" viewBox="0 0 25 25" fill="none" xmlns="http://www.w3.org/2000/svg">
<g id="user-edit">
<path id="Icon" d="M9.26519 15.6526H7.75802C6.35577 15.6526 5.65465 15.6526 5.08414 15.8257C3.79961 16.2153 2.79441 17.2205 2.40475 18.505C2.23169 19.0756 2.23169 19.7767 2.23169 21.1789M14.7915 7.61431C14.7915 10.1115 12.7672 12.1359 10.27 12.1359C7.7728 12.1359 5.74844 10.1115 5.74844 7.61431C5.74844 5.11714 7.7728 3.09277 10.27 3.09277C12.7672 3.09277 14.7915 5.11714 14.7915 7.61431ZM11.2748 21.1789L14.391 20.2886C14.5402 20.246 14.6148 20.2246 14.6844 20.1927C14.7462 20.1643 14.8049 20.1297 14.8597 20.0895C14.9215 20.0442 14.9763 19.9893 15.0861 19.8796L21.5739 13.3919C22.2676 12.6982 22.2676 11.5735 21.5739 10.8798C20.8802 10.1862 19.7555 10.1862 19.0619 10.8799L12.5741 17.3676C12.4644 17.4773 12.4095 17.5322 12.3642 17.5939C12.324 17.6488 12.2894 17.7075 12.261 17.7693C12.2291 17.8389 12.2077 17.9135 12.1651 18.0627L11.2748 21.1789Z" stroke="#0034AD" stroke-width="2.00957" stroke-linecap="round" stroke-linejoin="round"/>
</g>
</svg>
